PathFileType	4	(x/y/z)	S06_P20_T30
DataRate	CameraRate	NumFrames	NumMarkers	Units	OrigDataRate	OrigDataStartFrame	OrigNumFrames
240	240	4	51	mm	240	131	347
Frame#	Time	Sternum			R.Acromium			L.Acromium			Top.Head			R.ASIS			L.ASIS			R.PSIS			L.PSIS			R.Great.Tro			L.Great.Tro			R.Iliac.Crest			L.Iliac.Crest			V.Sacral			R.Thigh.Upper.Post			R.Thigh.Lower.Ant			R.Thigh.Lower.Post			R.Thigh.Upper.Ant			R.Knee.Lat			R.Knee.Med			R.Shank.Upper.Post			R.Shank.Lower.Ant			R.Shank.Lower.Post			R.Shank.Upper.Ant			R.Ankle.Lat			R.Ankle.Med			R.Heel.Upper			R.Heel.Med			R.Heel.Lat			R.Toe.Lat			R.Toe.Med			R.Toe.Tip			L.Thigh.Upper.Post			L.Thigh.Lower.Ant			L.Thigh.Lower.Post			L.Thigh.Upper.Ant			L.Knee.Lat			L.Knee.Med			L.Shank.Upper.Post			L.Shank.Lower.Ant			L.Shank.Lower.Post			L.Shank.Upper.Ant			L.Ankle.Lat			L.Ankle.Med			L.Heel.Upper			L.Heel.Med			L.Heel.Lat			L.Toe.Lat			L.Toe.Med			L.Toe.Tip			Cervical.Spine			Back			
		X1	Y1	Z1	X2	Y2	Z2	X3	Y3	Z3	X4	Y4	Z4	X5	Y5	Z5	X6	Y6	Z6	X7	Y7	Z7	X8	Y8	Z8	X9	Y9	Z9	X10	Y10	Z10	X11	Y11	Z11	X12	Y12	Z12	X13	Y13	Z13	X14	Y14	Z14	X15	Y15	Z15	X16	Y16	Z16	X17	Y17	Z17	X18	Y18	Z18	X19	Y19	Z19	X20	Y20	Z20	X21	Y21	Z21	X22	Y22	Z22	X23	Y23	Z23	X24	Y24	Z24	X25	Y25	Z25	X26	Y26	Z26	X27	Y27	Z27	X28	Y28	Z28	X29	Y29	Z29	X30	Y30	Z30	X31	Y31	Z31	X32	Y32	Z32	X33	Y33	Z33	X34	Y34	Z34	X35	Y35	Z35	X36	Y36	Z36	X37	Y37	Z37	X38	Y38	Z38	X39	Y39	Z39	X40	Y40	Z40	X41	Y41	Z41	X42	Y42	Z42	X43	Y43	Z43	X44	Y44	Z44	X45	Y45	Z45	X46	Y46	Z46	X47	Y47	Z47	X48	Y48	Z48	X49	Y49	Z49	X50	Y50	Z50	X51	Y51	Z51	

131	0.54167	-556.29	1267.3	299.88	-674.22	1478.9	468.55	-673.76	1484.4	116.33	-630.82	1798.6	292.5	-621.52	1040.3	426.4	-615.45	1026.1	172.35	NaN	NaN	NaN	-815.92	1068.6	249.43	-675.02	973	475.93	-717.58	964.55	117.18	-706.27	1116.2	455.31	-680.12	1104.1	134.15	-832.91	1033.6	292.79	-609.1	730.66	460.15	-534.7	669.21	421.58	-598.59	644.43	436.35	-541.64	758.78	441.56	-543.9	545.95	421.02	-548.28	552.36	293.42	-561.42	315.58	418.14	-495.5	258.5	394.28	-558.32	238.85	402.57	-500.36	333.92	408.35	-508.25	107.84	376.09	-495.67	119	287.97	-568.89	67.053	324.24	-556.39	38.366	292.84	-555.86	34.867	357.31	-378.45	52.429	390.61	-361.78	75.684	274.79	-297.31	101.35	318.76	-673.5	697.98	130.16	-627.94	613.22	184.48	-696.12	610.87	144.38	-610.03	705.38	165.55	-731.58	520.38	160.87	-696.44	515.37	278.29	-897.75	367.02	173.05	-886.22	279.07	175.96	-946.2	314.62	190.84	-840.71	333.6	164	-1000.6	173.22	193.56	-991.03	178.44	283.56	-1085.5	184.68	235.58	-1096.6	163.88	270.23	-1093.7	158.09	208.72	-951.79	54.329	183.36	-938.67	58.773	302.82	-870.88	39.406	256.39	-728.47	1536.2	292.8	-798.14	1268	287.91
132	0.54583	-550.57	1267.8	300.08	-668.4	1479.3	468.9	-668.32	1484.7	116.71	-625.08	1798.8	292.76	-615.59	1040.8	426.6	-609.87	1026.5	172.63	NaN	NaN	NaN	-810.24	1068.9	249.86	-669.11	973.48	476.24	-711.78	964.73	117.54	-700.19	1116.6	455.63	-674.56	1104.5	134.5	-827.14	1033.9	293.3	-603.54	731	460.58	-529.32	669.4	421.97	-593.21	644.7	436.94	-536.04	758.94	441.71	-538.97	545.9	421.35	-544.02	552.22	293.81	-558.22	315.58	418.63	-492.87	258.04	394.37	-555.78	238.85	403.02	-497.07	333.49	408.5	-507.16	107.58	376.18	-494.46	118.64	288.02	-568.35	67.432	324.37	-556.13	38.635	292.93	-555.63	35.068	357.38	-378.01	50.893	390.57	-361.07	73.963	274.74	-296.25	98.864	318.63	-664.35	697.99	129.42	-617.79	613.61	183.49	-685.98	610.58	143.44	-601	706.04	164.88	-720.53	520.03	159.83	-685.05	514.76	277.27	-888.22	369.4	171.87	-878.15	281.2	175.02	-937.59	317.78	189.69	-831.71	335.07	163.13	-993.85	177.35	192.45	-984.72	182.6	282.5	-1078.3	191.84	234.22	-1090.3	171.59	268.91	-1087.4	165.52	207.41	-949.06	56.56	182.88	-936.29	60.956	302.18	-869.22	39.185	256.17	-722.92	1536.4	293.19	-792.47	1268.3	288.39
133	0.55	-544.87	1268.3	300.24	-662.56	1479.6	469.24	-662.93	1485	117.07	-619.35	1799.1	293.03	-609.69	1041.2	426.77	-604.31	1027	172.86	NaN	NaN	NaN	-804.59	1069.2	250.28	-663.23	973.99	476.54	-705.99	964.9	117.9	-694.13	1117	455.93	-669.05	1104.9	134.82	-821.4	1034.2	293.81	-598.12	731.35	461.03	-524.04	669.59	422.41	-587.94	644.98	437.55	-530.54	759.1	441.91	-534.2	545.83	421.71	-539.78	552.09	294.25	-555.13	315.6	419.13	-490.33	257.6	394.5	-553.34	238.86	403.47	-493.89	333.06	408.67	-506.13	107.34	376.27	-493.3	118.32	288.09	-567.83	67.786	324.49	-555.87	38.898	293.01	-555.4	35.258	357.45	-377.61	49.451	390.57	-360.39	72.353	274.73	-295.26	96.504	318.55	-655.12	698.05	128.69	-607.57	614.1	182.54	-675.74	610.34	142.51	-591.91	706.77	164.24	-709.33	519.75	158.82	-673.56	514.26	276.31	-878.45	371.79	170.68	-869.78	283.38	174.11	-928.72	320.97	188.5	-822.46	336.58	162.3	-986.83	181.59	191.33	-978.15	186.85	281.44	-1070.8	199.04	232.82	-1083.7	179.32	267.52	-1080.7	173.02	206.04	-945.96	59.041	182.33	-933.57	63.318	301.49	-867.23	39.044	255.88	-717.37	1536.6	293.58	-786.83	1268.5	288.87
134	0.55417	-539.19	1268.7	300.37	-656.71	1480	469.56	-657.56	1485.3	117.42	-613.63	1799.3	293.3	-603.82	1041.7	426.91	-598.79	1027.4	173.07	NaN	NaN	NaN	-798.97	1069.4	250.69	-657.41	974.53	476.84	-700.2	965.06	118.24	-688.09	1117.4	456.21	-663.6	1105.3	135.12	-815.7	1034.5	294.32	-592.82	731.7	461.5	-518.86	669.77	422.88	-582.78	645.26	438.17	-525.14	759.24	442.17	-529.57	545.76	422.08	-535.58	551.99	294.72	-552.15	315.61	419.62	-487.89	257.17	394.65	-550.99	238.89	403.91	-490.83	332.65	408.87	-505.17	107.12	376.36	-492.19	118.05	288.17	-567.35	68.115	324.61	-555.62	39.154	293.08	-555.19	35.439	357.52	-377.25	48.106	390.61	-359.75	70.852	274.74	-294.32	94.27	318.5	-645.82	698.16	127.96	-597.29	614.68	181.64	-665.41	610.17	141.62	-582.78	707.58	163.64	-697.99	519.53	157.85	-661.99	513.87	275.42	-868.46	374.21	169.48	-861.13	285.62	173.25	-919.6	324.18	187.3	-812.99	338.13	161.52	-979.53	185.91	190.21	-971.33	191.16	280.4	-1062.9	206.23	231.4	-1076.8	187.02	266.07	-1073.7	180.54	204.61	-942.46	61.764	181.72	-930.49	65.852	300.73	-864.87	39.001	255.53	-711.83	1536.8	293.97	-781.21	1268.8	289.36
